<?xml version="1.0" ?><svg id="Layer_1" style="enable-background:new 0 0 365.401 369.243;" version="1.1" viewBox="0 0 365.401 369.243" xml:space="preserve" xmlns="http://www.w3.org/2000/svg" xmlns:xlink="http://www.w3.org/1999/xlink"><g><path d="M201.963,19.603c0,1.435,0.383,2.778,1.045,3.943c-1.359,10.476-3.754,32.785-3.754,59.89c0,37.833,0,106,0,106h73.166   h78.252c0,0,0-68.167,0-106c0-27.105-2.396-49.414-3.754-59.89c0.662-1.165,1.045-2.508,1.045-3.943c0-4.418-3.582-8-8-8h-130   C205.545,11.603,201.963,15.185,201.963,19.603z M340.796,127.436h-12v-11h12V127.436z M328.796,130.103h12v8.667h-12V130.103z    M337.284,27.103c1.344,10.966,3.389,31.709,3.389,56.333H209.254c0-24.624,2.045-45.367,3.391-56.333h59.777H337.284z    M219.795,127.436h-12v-11h12V127.436z M207.795,130.103h12v8.667h-12V130.103z M207.795,163.77v-22.333h12v22.333H207.795z    M312.714,173.602h-75.5v-2.905h75.5V173.602z M312.714,167.283h-75.5v-2.905h75.5V167.283z M312.714,160.965h-75.5v-2.905h75.5   V160.965z M312.714,154.646h-75.5v-2.905h75.5V154.646z M312.714,148.327h-75.5v-2.905h75.5V148.327z M312.714,142.008h-75.5   v-2.905h75.5V142.008z M328.796,163.77v-22.333h12v22.333H328.796z"/><polygon points="173.897,144.645 168.563,144.644 118.788,211.348 118.788,228.706  "/><polygon points="3.899,365.311 29.231,365.311 54.696,326.468 54.696,297.237  "/><path d="M104.163,169.328l0.736-0.926l1.033-1.294c2.295-2.889,5.203-6.554,8.492-10.721c-0.127-1.112-0.334-2.2-0.617-3.256   c-2.568-9.598-11.322-16.667-21.732-16.667c-12.426,0-22.5,10.073-22.5,22.5c0,2.767,0.502,5.416,1.416,7.864   c0.32,0.86,0.695,1.693,1.115,2.5H104.163z"/><path d="M64.001,172.635c-3.182,1.197-8.883,4.332-14.662,11.899c-7.695,10.007-15.711,27.369-20.352,58.255   c-0.535,3.557,1.361,6.916,4.441,8.397c0,0,2.979,1.323,5.318,0.567c2.34-0.755,5.563-3.264,6.063-6.589   c3.767-25.169,9.797-39.557,14.887-47.55V356.88c0,6.83,5.537,12.363,12.363,12.363c6.828,0,12.365-5.533,12.365-12.363V255.677   h4.635v48.634c0,6.83,5.537,12.363,12.363,12.363c6.828,0,12.365-5.533,12.365-12.363V186.688c0.363-0.313,0.709-0.653,1.02-1.041   h-0.002c0.033-0.042,33.695-42.027,54.527-70.253c2.625-3.555,1.871-8.562-1.684-11.187c-3.557-2.621-8.566-1.867-11.188,1.687   c-10.242,13.873-45.105,58.405-48.574,62.771c-0.949,1.193-1.791,2.25-2.518,3.163H67.424   C66.194,171.828,65.034,172.124,64.001,172.635z"/><path d="M47.112,146.301l13.887,1.054c0.039,0.003,0.078,0.004,0.117,0.004c0.775,0,1.432-0.599,1.492-1.385   c0.064-0.827-0.555-1.546-1.381-1.61l-9.232-0.702l9.264-5.626c0.449-0.273,0.721-0.757,0.721-1.283   c0-0.526-0.273-1.01-0.723-1.281l-7.016-4.257l9.596-1.686c0.498-0.089,0.924-0.427,1.121-0.893   c0.197-0.467,0.143-1.005-0.139-1.426l-7.246-10.72l11.768,4.221c0.463,0.166,0.977,0.095,1.377-0.189   c0.4-0.286,0.635-0.749,0.631-1.239l-0.123-11.399l8.131,9.498c0.33,0.388,0.836,0.579,1.342,0.509   c0.508-0.068,0.939-0.388,1.156-0.851l4.512-9.687l3.061,13.52c0.102,0.45,0.408,0.83,0.824,1.025   c0.418,0.197,0.904,0.191,1.316-0.017l7.055-3.57l-2.502,7.341c-0.268,0.785,0.15,1.637,0.936,1.905   c0.783,0.267,1.637-0.151,1.904-0.936l3.691-10.829c0.195-0.579,0.025-1.215-0.436-1.616c-0.463-0.401-1.117-0.484-1.662-0.206   l-8.625,4.363l-3.605-15.926c-0.141-0.625-0.662-1.09-1.303-1.158c-0.639-0.07-1.248,0.274-1.519,0.857l-5.383,11.552   l-9.299-10.863c-0.408-0.477-1.074-0.649-1.664-0.428c-0.59,0.223-0.98,0.791-0.971,1.421l0.141,13.368l-14.057-5.039   c-0.611-0.221-1.293-0.022-1.689,0.49c-0.398,0.513-0.424,1.224-0.061,1.761l8.52,12.604l-11.244,1.979   c-0.619,0.108-1.1,0.585-1.215,1.201c-0.115,0.613,0.162,1.234,0.697,1.559l8.313,5.044l-11.143,6.767   c-0.559,0.339-0.832,0.997-0.68,1.631C45.917,145.788,46.46,146.251,47.112,146.301z"/><path d="M76.592,76.079c0.1,0.157,0.217,0.369,0.352,0.636c0.203,0.4,0.684,1.468,1.436,3.204c0.754,1.735,1.541,3.444,2.363,5.124   c0.822,1.68,1.412,2.75,1.77,3.207c0.355,0.458,0.684,0.744,0.986,0.857c0.301,0.113,0.635,0.127,1,0.04   c0.506-0.12,1.197-1.733,2.072-4.842l1.582-5.622c0.168,0.345,0.891,1.457,2.17,3.336c1.277,1.879,2.18,3.025,2.705,3.434   c0.525,0.41,1.037,0.557,1.537,0.438c0.186-0.044,0.402-0.164,0.65-0.361c0.248-0.196,0.408-0.397,0.477-0.603   c0.053-0.311,0.166-0.86,0.342-1.648c0.572-2.564,0.873-3.965,0.904-4.2l0.141-0.847c0.352-2.033,0.541-3.892,0.566-5.577   c0.025-1.684-0.049-2.895-0.225-3.632c-0.084-0.357-0.256-0.656-0.518-0.897c-0.262-0.24-0.623-0.306-1.086-0.197   c-0.334,0.08-0.609,0.233-0.828,0.462c-0.217,0.229-0.291,0.488-0.223,0.778c0.576,4.321,0.277,8.748-0.898,13.278   c-0.096-0.032-0.797-1.021-2.107-2.968l-1.471-2.175c-0.078-0.106-0.141-0.199-0.182-0.275c-0.842-1.231-1.41-1.985-1.703-2.262   c-0.295-0.276-0.602-0.376-0.922-0.301c-0.244,0.059-0.467,0.19-0.666,0.399c-0.197,0.208-0.326,0.417-0.387,0.629   c-0.434,2.084-0.779,3.582-1.035,4.496c-0.254,0.913-0.816,2.644-1.682,5.191c-0.135-0.165-0.563-1.109-1.285-2.832   c-0.215-0.516-0.488-1.135-0.816-1.859c-0.314-0.695-0.592-1.349-0.832-1.961l-0.736-1.818c-0.148-0.46-0.498-1.221-1.047-2.281   c-0.551-1.061-1.18-1.508-1.887-1.34c-0.387,0.092-0.688,0.326-0.904,0.704c-0.219,0.377-0.287,0.729-0.211,1.057   C76.059,75.12,76.258,75.529,76.592,76.079z"/><path d="M101.971,83.205c0.609,0.414,1.248,0.542,1.918,0.384c1.824-0.433,3.408-2.172,4.756-5.219   c0.523,2.84,1.484,4.095,2.883,3.763c0.418-0.099,0.787-0.321,1.111-0.663c0.322-0.344,0.439-0.706,0.35-1.086   c-0.061-0.253-0.256-0.415-0.586-0.485c-0.33-0.064-0.539-0.147-0.627-0.254c-0.088-0.105-0.242-0.335-0.465-0.692   c-0.221-0.357-0.445-1.011-0.672-1.963c-0.217-0.916-0.357-2.176-0.422-3.78c-0.031-0.858-0.082-1.442-0.156-1.755   c-0.156-0.655-0.662-0.882-1.518-0.679c-0.5-0.849-1.203-1.165-2.111-0.95c-1.787,0.423-3.295,1.957-4.523,4.602   s-1.609,4.955-1.143,6.928C100.961,82.174,101.362,82.792,101.971,83.205z M104.168,75.521c0.807-1.948,1.586-3.012,2.338-3.19   c0.209-0.049,0.422,0.017,0.643,0.196c0.219,0.181,0.373,0.457,0.461,0.829c0.277,1.168-0.043,2.685-0.957,4.548   c-0.914,1.863-1.811,2.899-2.689,3.107c-0.252,0.06-0.453-0.215-0.598-0.826C103.092,79.025,103.358,77.469,104.168,75.521z"/><path d="M115.348,80.037c0.609,0.414,1.248,0.542,1.918,0.384c1.824-0.433,3.408-2.172,4.756-5.219   c0.523,2.84,1.484,4.095,2.883,3.763c0.418-0.099,0.787-0.32,1.111-0.663c0.322-0.344,0.439-0.706,0.35-1.086   c-0.059-0.253-0.256-0.415-0.586-0.486c-0.33-0.063-0.539-0.146-0.627-0.253c-0.088-0.104-0.242-0.335-0.465-0.691   c-0.221-0.357-0.445-1.011-0.67-1.964c-0.217-0.915-0.359-2.175-0.424-3.779c-0.031-0.857-0.082-1.442-0.156-1.755   c-0.156-0.655-0.66-0.882-1.518-0.679c-0.5-0.849-1.203-1.166-2.111-0.95c-1.787,0.423-3.295,1.957-4.523,4.603   s-1.609,4.955-1.143,6.928C114.338,79.007,114.739,79.624,115.348,80.037z M117.543,72.353c0.809-1.948,1.588-3.011,2.34-3.19   c0.209-0.049,0.424,0.017,0.643,0.196c0.219,0.18,0.373,0.457,0.461,0.829c0.277,1.168-0.043,2.685-0.957,4.548   c-0.914,1.863-1.811,2.899-2.69,3.107c-0.254,0.06-0.453-0.215-0.598-0.825C116.469,75.857,116.735,74.301,117.543,72.353z"/><path d="M128.725,76.869c0.609,0.414,1.248,0.542,1.918,0.383c1.824-0.432,3.408-2.171,4.756-5.218   c0.523,2.84,1.484,4.095,2.883,3.763c0.418-0.099,0.787-0.32,1.111-0.663c0.322-0.344,0.442-0.706,0.35-1.086   c-0.059-0.253-0.256-0.415-0.586-0.487c-0.33-0.063-0.539-0.147-0.627-0.253c-0.088-0.104-0.242-0.335-0.463-0.691   c-0.223-0.356-0.447-1.011-0.672-1.964c-0.217-0.915-0.359-2.175-0.424-3.779c-0.031-0.858-0.082-1.442-0.156-1.756   c-0.154-0.655-0.66-0.881-1.518-0.678c-0.5-0.849-1.203-1.166-2.111-0.95c-1.785,0.423-3.295,1.957-4.523,4.602   s-1.609,4.955-1.143,6.927C127.715,75.839,128.116,76.455,128.725,76.869z M130.92,69.185c0.809-1.948,1.588-3.012,2.34-3.19   c0.209-0.049,0.424,0.017,0.643,0.196c0.219,0.18,0.373,0.457,0.461,0.829c0.277,1.169-0.041,2.685-0.957,4.548   c-0.914,1.863-1.811,2.899-2.689,3.107c-0.254,0.06-0.451-0.215-0.596-0.826C129.846,72.688,130.112,71.133,130.92,69.185z"/><path d="M142.102,73.701c0.609,0.414,1.248,0.542,1.918,0.383c1.824-0.432,3.41-2.171,4.756-5.218   c0.523,2.84,1.484,4.094,2.883,3.763c0.418-0.099,0.789-0.32,1.111-0.664c0.322-0.343,0.441-0.705,0.35-1.085   c-0.059-0.253-0.256-0.415-0.586-0.486c-0.33-0.063-0.539-0.147-0.627-0.253c-0.088-0.104-0.242-0.335-0.463-0.692   c-0.223-0.356-0.447-1.011-0.672-1.964c-0.217-0.915-0.357-2.175-0.424-3.779c-0.029-0.857-0.082-1.442-0.156-1.756   c-0.154-0.655-0.66-0.881-1.516-0.678c-0.5-0.849-1.205-1.166-2.113-0.95c-1.785,0.423-3.295,1.957-4.523,4.603   c-1.229,2.646-1.609,4.955-1.143,6.927C141.092,72.671,141.493,73.287,142.102,73.701z M144.297,66.017   c0.809-1.949,1.588-3.012,2.342-3.19c0.207-0.049,0.422,0.017,0.641,0.196c0.221,0.18,0.373,0.457,0.461,0.829   c0.277,1.168-0.041,2.685-0.957,4.548c-0.914,1.863-1.811,2.899-2.689,3.107c-0.254,0.06-0.451-0.215-0.596-0.826   C143.223,69.52,143.489,67.965,144.297,66.017z"/><path d="M157.143,65.658c-0.133-0.928-0.164-2.158-0.096-3.692l0.008-0.262c0.057-0.995,0.049-1.642-0.023-1.939   c-0.07-0.298-0.275-0.532-0.613-0.704c-0.34-0.171-0.762-0.197-1.27-0.077c-0.432,0.102-0.725,0.367-0.877,0.798   c-0.154,0.429-0.166,0.919-0.035,1.47c0.045,0.194,0.109,0.997,0.191,2.407l-0.002-0.011c0.025,0.371,0.049,0.767,0.068,1.187   c0.074,1.9,0.26,3.484,0.559,4.75c0.354,1.489,1.021,2.116,2.004,1.884c0.371-0.088,0.686-0.315,0.941-0.683   c0.254-0.367,0.361-0.636,0.32-0.808c-0.02-0.088-0.059-0.198-0.111-0.327c-0.338-0.722-0.559-1.31-0.666-1.764   C157.409,67.329,157.276,66.586,157.143,65.658z"/><path d="M154.842,55.366c0.434,0.29,0.873,0.383,1.32,0.276c0.35-0.083,0.715-0.38,1.098-0.891c0.383-0.511,0.512-1.031,0.387-1.56   c-0.096-0.402-0.332-0.714-0.711-0.935c-0.379-0.221-0.818-0.271-1.316-0.153c-0.641,0.151-1.092,0.434-1.357,0.845   c-0.262,0.413-0.332,0.888-0.205,1.424C154.145,54.745,154.407,55.076,154.842,55.366z"/><path d="M159.323,60.648c0.406,0.141,0.781,0.169,1.123,0.088l0.234-0.056c0.188-0.044,0.512-0.148,0.977-0.313   c-0.041,3.186,0.059,5.28,0.297,6.285c0.258,1.087,0.715,1.859,1.369,2.317s1.473,0.571,2.455,0.338   c1.178-0.278,2.195-0.958,3.057-2.039c0.859-1.079,1.213-1.948,1.057-2.603c-0.039-0.163-0.137-0.291-0.297-0.384   c-0.158-0.092-0.348-0.112-0.563-0.06c-0.268,0.063-0.559,0.301-0.869,0.713c-0.506,0.654-0.932,1.099-1.281,1.334   c-0.35,0.236-0.732,0.404-1.148,0.503c-0.299,0.07-0.541,0-0.729-0.211c-0.188-0.211-0.354-0.621-0.498-1.232   c-0.084-0.35-0.145-1.397-0.184-3.14c-0.039-1.744-0.025-2.624,0.041-2.64l3.699-1.561c1.08-0.444,1.543-0.998,1.387-1.661   c-0.078-0.327-0.193-0.534-0.348-0.619c-0.154-0.085-0.428-0.081-0.822,0.012c-0.23,0.055-1.506,0.468-3.822,1.236   c0.115-2.331,0.16-3.557,0.133-3.676c-0.072-0.305-0.254-0.555-0.545-0.749c-0.289-0.195-0.639-0.244-1.049-0.147   c-0.736,0.175-1.102,0.741-1.096,1.698c-0.004,1.542-0.055,2.801-0.154,3.775l-2.369,0.655c-0.707,0.167-0.986,0.563-0.838,1.188   C158.655,60.193,158.918,60.509,159.323,60.648z"/><path d="M172.616,66.587c0.254,0.125,0.604,0.134,1.053,0.028c0.258-0.062,0.568-0.31,0.926-0.744   c0.355-0.435,0.574-0.778,0.65-1.033c0.078-0.254,0.066-0.589-0.031-1.006c-0.061-0.253-0.234-0.458-0.523-0.614   c-0.289-0.156-0.66-0.18-1.113-0.071c-0.611,0.145-1.063,0.318-1.357,0.521c-0.293,0.204-0.434,0.42-0.418,0.648   c0.016,0.229,0.072,0.551,0.17,0.968C172.149,66.027,172.364,66.463,172.616,66.587z"/><path d="M178.311,65.238c0.254,0.125,0.604,0.134,1.051,0.028c0.26-0.061,0.57-0.309,0.926-0.744   c0.357-0.435,0.574-0.778,0.652-1.033c0.078-0.254,0.066-0.589-0.031-1.006c-0.061-0.253-0.234-0.458-0.523-0.614   c-0.289-0.155-0.66-0.18-1.113-0.071c-0.611,0.145-1.062,0.318-1.357,0.521c-0.293,0.204-0.434,0.42-0.418,0.648   c0.014,0.228,0.072,0.551,0.172,0.968C177.842,64.678,178.057,65.113,178.311,65.238z"/><path d="M184.006,63.889c0.254,0.125,0.604,0.134,1.051,0.028c0.26-0.062,0.57-0.31,0.926-0.744   c0.357-0.435,0.574-0.779,0.652-1.033c0.076-0.254,0.066-0.589-0.033-1.006c-0.059-0.253-0.234-0.458-0.521-0.615   c-0.289-0.155-0.66-0.179-1.115-0.071c-0.609,0.145-1.063,0.318-1.355,0.521c-0.295,0.204-0.434,0.42-0.418,0.648   c0.014,0.229,0.07,0.551,0.17,0.968C183.538,63.33,183.752,63.765,184.006,63.889z"/><path d="M3.077,117.55c5.186-3.055,10.145-7.358,9.605-13.904c-0.227-2.751-1.592-5.62-3.449-7.664   c-0.65-0.717-4.022-0.9-3.111,0.102c1.461,1.61,2.392,3.663,2.934,5.748c1.68,6.478-3.768,11.401-8.777,14.351   C-0.951,116.908,2.243,118.042,3.077,117.55z"/><path d="M34.903,104.375c1.869-0.75-1.074-2.202-2.154-1.77c-4.969,1.992-10.475,3.002-13.213-2.568   c-0.951-1.934-1.482-4.313-1.48-6.475c0.002-1.338-3.422-1.865-3.424-0.725c-0.004,3.221,0.912,6.547,2.793,9.173   C21.481,107.67,29.303,106.619,34.903,104.375z"/><path d="M28.745,113.662c-3.928,4.681-2.494,10.973,0.008,15.93c0.725,1.434,2.918,1.999,1.85-0.117   c-3.771-7.471-0.939-15.051,6.965-17.861c0.941-0.335-0.752-3.334-1.945-2.91C32.922,109.664,30.569,111.486,28.745,113.662z"/><path d="M17.67,126.916c0.979,1.656,1.445,3.762,1.449,5.683c0.004,1.703,3.453,1.792,3.449-0.131   c-0.008-2.903-1.078-5.866-2.891-8.112c-4.264-5.285-12.018-3.285-17.283-1.053c-2.006,0.85,0.533,2.977,2.111,2.308   C8.801,123.791,14.786,122.037,17.67,126.916z"/><rect height="20.375" transform="matrix(0.7071 -0.7071 0.7071 0.7071 39.6118 209.232)" width="1.888" x="271.417" y="46.615"/><rect height="20.375" transform="matrix(0.7074 -0.7068 0.7068 0.7074 44.7481 211.2852)" width="1.888" x="276.623" y="41.408"/><rect height="55.225" transform="matrix(0.7071 -0.7071 0.7071 0.7071 42.2083 210.2997)" width="1.89" x="274.018" y="26.587"/><path d="M203.963,204.77c0,2.209,1.791,4,4,4h16.666c2.209,0,4-1.791,4-4v-11.667h-24.666V204.77z"/><path d="M345.964,204.77v-11.667h-24.666v11.667c0,2.209,1.791,4,4,4h16.666C344.172,208.77,345.964,206.979,345.964,204.77z"/><path d="M173.934,221.465l3.523,1.536l2.828-6.58c6.127,2.1,9.768,8.551,8.227,14.976c-1.57,6.562-7.971,10.689-14.525,9.548   c0.041-0.152,0.094-0.296,0.131-0.45c0.764-3.187,0.49-6.378-0.596-9.224c0.219,1.574,0.166,3.212-0.227,4.851   c-1.686,7.032-8.748,11.367-15.783,9.682c-7.031-1.683-11.363-8.75-9.68-15.781c0.799-3.333,2.816-6.049,5.457-7.816   c-1.639,0.627-3.156,1.536-4.498,2.665c-2.008-2.875-2.836-6.557-1.953-10.235c1.633-6.826,8.49-11.036,15.318-9.4   c2.371,0.568,4.416,1.777,6.021,3.385l-4.813,5.446l2.893,2.528l8.209-10.311l10.598-13.313l-1.797-1.428l-12.541,14.192   c-2.121-2.46-4.996-4.311-8.396-5.125c-8.623-2.064-17.285,3.249-19.352,11.872c-1.283,5.355,0.285,10.723,3.721,14.52   c-1.426,1.759-2.502,3.843-3.064,6.19c-2.016,8.418,3.176,16.876,11.59,18.893c7.453,1.785,14.928-2.083,17.945-8.834   c0.514,0.183,1.041,0.343,1.582,0.473c8.211,1.967,16.463-3.094,18.43-11.307c1.967-8.211-3.096-16.464-11.307-18.431   c-0.168-0.04-0.334-0.06-0.502-0.094l7.957-18.505l-2.057-1.013l-7.344,14.914L173.934,221.465z"/><path d="M197.835,11.927c0.506,0,0.939-0.38,0.994-0.895c0-0.002,0.023-0.24,0.143-0.672c0.422-1.344,1.375-3.732,4.805-3.747   c0.385,0,0.803,0.03,1.262,0.101c0.547,0.084,1.057-0.292,1.141-0.837c0.084-0.546-0.289-1.057-0.834-1.14   c-0.557-0.086-1.076-0.125-1.568-0.125c-3.035-0.023-4.928,1.593-5.838,3.135c-0.937,1.539-1.084,2.989-1.1,3.072   c-0.059,0.547,0.34,1.041,0.889,1.102C197.764,11.925,197.799,11.927,197.835,11.927z"/><path d="M193.432,9.671c0.055,0.009,0.109,0.013,0.162,0.013c0.482,0,0.906-0.351,0.988-0.842h-0.002c0,0,0.061-0.389,0.277-1.046   c0.711-2.012,2.523-5.787,7.826-5.797c0.752,0,1.582,0.078,2.496,0.254c0.543,0.105,1.066-0.251,1.172-0.793   c0.104-0.543-0.25-1.067-0.791-1.172C204.528,0.09,203.573,0,202.684,0c-4.27-0.019-6.924,2.167-8.318,4.284   c-1.418,2.117-1.742,4.159-1.76,4.241C192.518,9.068,192.889,9.583,193.432,9.671z"/><path d="M356.852,89.623c0.189,0.167,0.426,0.249,0.66,0.249c0.277,0,0.555-0.115,0.752-0.339c1.537-1.74,2.145-3.488,2.141-5.029   c-0.045-3.369-2.59-5.332-2.656-5.41c-0.43-0.347-1.06-0.28-1.406,0.151c-0.348,0.431-0.279,1.06,0.152,1.406   c0,0,0.09,0.072,0.273,0.255c0.561,0.56,1.652,1.935,1.637,3.598c-0.004,1.025-0.363,2.245-1.643,3.707   C356.397,88.624,356.438,89.258,356.852,89.623z"/><path d="M361.042,78.683c0.797,0.881,2.371,3.034,2.357,5.698c-0.006,1.815-0.676,3.945-2.963,6.364   c-0.381,0.4-0.365,1.034,0.035,1.415c0.193,0.184,0.441,0.274,0.689,0.274c0.264,0,0.529-0.105,0.725-0.312   c2.578-2.697,3.521-5.398,3.516-7.742c-0.037-4.608-3.363-7.524-3.43-7.604c-0.41-0.37-1.043-0.337-1.412,0.074   c-0.371,0.411-0.336,1.043,0.076,1.413C360.635,78.263,360.78,78.393,361.042,78.683z"/><path d="M348.772,8.865h-0.002c0.002,0,0.238,0.024,0.664,0.146c1.334,0.428,3.701,1.396,3.713,4.777   c0.002,0.4-0.033,0.841-0.109,1.326c-0.088,0.546,0.285,1.057,0.832,1.143c0.053,0.008,0.105,0.013,0.158,0.013   c0.484,0,0.908-0.352,0.986-0.845c0.088-0.577,0.133-1.121,0.133-1.636c0.023-3.006-1.578-4.887-3.104-5.8   c-1.525-0.939-2.961-1.097-3.043-1.112c-0.549-0.063-1.045,0.332-1.108,0.88C347.829,8.306,348.223,8.801,348.772,8.865z"/><path d="M350.997,4.636V4.633c0,0,0.385,0.063,1.035,0.287c1.99,0.717,5.73,2.546,5.736,7.783c0.002,0.776-0.082,1.637-0.27,2.59   c-0.109,0.542,0.244,1.069,0.785,1.176c0.066,0.013,0.131,0.019,0.195,0.019c0.469,0,0.885-0.329,0.98-0.806   c0.209-1.069,0.309-2.059,0.311-2.979c0.018-4.227-2.147-6.865-4.242-8.264c-2.096-1.421-4.115-1.759-4.195-1.777   c-0.545-0.092-1.063,0.275-1.154,0.819C350.087,4.026,350.454,4.542,350.997,4.636z"/></g></svg>