<?xml version="1.0" ?><svg id="Layer_1" style="enable-background:new 0 0 260.363 430.206;" version="1.1" viewBox="0 0 260.363 430.206" xml:space="preserve" xmlns="http://www.w3.org/2000/svg" xmlns:xlink="http://www.w3.org/1999/xlink"><g><path d="M37.371,95.146h9.852v6.084h120.668V24.563H47.223v6.084h-9.852V0H26.48v418.347H0v10.893h63.851v-10.892h-26.48V95.146z    M53.223,30.563h108.668v64.667H53.223V30.563z M47.223,40.646v44.499h-9.852V40.646H47.223z"/><path d="M60.973,77.666h18.093c0.09-3.857,3.237-6.957,7.116-6.957c3.879,0,7.026,3.1,7.116,6.957h30.852   c0.09-3.857,3.235-6.957,7.116-6.957c3.877,0,7.026,3.1,7.116,6.957h4.009l11.75-4.166V42.834H60.973V77.666z M128.391,47.084   h20.957v11.332h-20.957V47.084z M104.328,47.084h20.957v11.332h-20.957V47.084z M80.266,47.084h20.957v11.332H80.266V47.084z    M65.766,47.084h10.332v26.332H65.766V47.084z"/><circle cx="86.182" cy="77.833" r="5.125"/><circle cx="131.266" cy="77.833" r="5.125"/><path d="M152.553,246.676c-2.736-1.48-5.716-2.593-9.046-2.86c-0.374-0.056-0.755-0.094-1.146-0.094h-1.57   c-4.466,4.697-10.768,7.635-17.746,7.635c-6.979,0-13.28-2.938-17.748-7.635H104.1c-0.175-0.019-0.374-0.04-0.622-0.068   c-2.956-0.327-10.664-1.35-17.083-3.115c-2.017-0.54-3.909-1.184-5.384-1.802c1.298-0.882,3.099-1.953,5.439-3.058   c3.152-1.541,7.247-3.256,12.373-5.118c-0.185-1.208-0.28-2.444-0.28-3.703c0-5.549,1.857-10.671,4.979-14.783   c-12.867,4.118-21.843,7.791-28.188,11.375c-3.509,2.006-6.258,3.963-8.492,6.371c-2.178,2.345-4.067,5.588-4.078,9.52   c-0.018,3.641,1.742,6.748,3.573,8.658c3.288,3.392,6.944,4.936,10.797,6.395c5.763,2.065,12.121,3.313,17.206,4.146   c0.572,0.093,1.124,0.178,1.658,0.259v42.105v18.94v98c0,6.83,5.537,12.363,12.363,12.363c6.828,0,12.365-5.533,12.365-12.363   v-90.271h4.635v90.271c0,6.83,5.537,12.363,12.363,12.363c6.828,0,12.365-5.533,12.365-12.363v-98v-18.94v-1.412   c-7.41,2.394-16.543,3.574-27.732,3.592h-0.002c-5.516,0-10.002-4.484-10.002-9.999c0-5.516,4.486-10,10.002-10   c8.42,0,15.57-0.814,20.748-2.351c3.73-1.101,5.833-2.365,6.986-3.308v-12.332c0.442,0.521,0.865,1.059,1.244,1.614   c1.801,2.572,2.717,5.332,2.682,7.214c0,0.531-0.057,1.016-0.17,1.479c0,0.002-0.001,0.003-0.001,0.005   c-0.223,0.845-0.585,1.617-1.429,2.565c-0.113,0.127-0.252,0.262-0.388,0.395c-1.372,1.345-3.913,2.975-8.357,4.284   c-2.288,0.68-5.061,1.258-8.332,1.682c0.229,0.779,0.529,1.848,0.857,3.151c1.72,0.424,3.039,1.605,3.264,3.172   c0.204,1.423-0.546,2.797-1.831,3.704c0.299,1.841,0.535,3.778,0.66,5.721c6.409-0.894,11.76-2.38,16.272-4.455   c2.268-1.052,4.318-2.275,6.144-3.664c1.314-1,2.517-2.082,3.581-3.259c2.543-2.799,4.281-6.114,5.102-9.498   c0.001-0.003,0.001-0.006,0.002-0.009c0-0.003,0.001-0.005,0.002-0.008c0.426-1.757,0.625-3.53,0.623-5.265   c-0.094-8.312-4.074-15.29-9.004-20.617C158.502,250.641,155.672,248.382,152.553,246.676z"/><circle cx="123.045" cy="226.856" r="22.5"/><path d="M133.744,295.389c-2.157-0.169-3.919-1.482-4.184-3.318c-0.241-1.693,0.86-3.32,2.615-4.166   c-0.223-0.863-0.43-1.612-0.601-2.2c-0.116-0.402-0.208-0.71-0.283-0.955c-2.698,0.215-5.669,0.335-8.938,0.333   c-4.418,0-8.002,3.583-8.002,8.001c0,4.418,3.584,8.001,8.002,8.001c4.329-0.007,8.303-0.188,11.962-0.537   C134.216,298.825,134.01,297.075,133.744,295.389z"/><path d="M116.376,155.24c0.12-0.686,0.175-1.309,0.199-1.899c1.071-1.066,2.083-2.19,2.983-3.411   c3.099-4.204-1.41-7.386-4.693-9.373c-12.28-7.436-32.84-8.492-43.845,1.9c-2.603,2.458-4.134,5.563-4.713,8.838   c-2.968,1.593-5.726,3.381-8.15,5.273c-4.152,3.24-8.033,8.01-7.229,13.585c0.809,5.603,5.764,7.882,10.803,7.34   c1.992,3.436,7.347,4.123,11.418,3.813c1.344,1.111,3.006,1.55,4.802,1.534c0.01,0.199,0.031,0.399,0.075,0.602   c0.238,1.088,1.093,1.707,2.285,2.011c-1.339,2.143-1.682,4.046,1.001,4.293c5.59,0.516,11.857-2.674,16.665-5.125   c2.226-1.136,7.592-4.11,10.584-7.396c0.974,1.801,1.114,4.066,0.3,5.965c-0.901,2.103-2.814,3.708-4.98,4.914   c-3.04-2.705-10.398,1.339-12.925,3.204c-0.239,0.178-0.134,0.379,0.116,0.434c3.399,0.755,7.224,0.01,10.732-1.457   c0.802,1.488,0.598,3.458,0.145,4.993c-0.289,0.98-0.853,1.852-1.567,2.57c-1.966,0.63-2.046,0.187-0.24-1.331   c0.526-0.269,0.73-0.544,1.201-1.012c0.595-0.592-2.136-0.244-2.619,0.236c-1.22,1.213-2.295,1.347-3.075,2.915   c-0.095,0.191,0.102,0.245,0.234,0.292c5.176,1.829,9.662-2.423,9.317-7.6c-0.066-1.003-0.29-1.792-0.636-2.4   c1.716-0.94,3.295-2.018,4.622-3.129c4.064-3.401,3.721-7.904,0.886-10.678c0.631-1.2,0.814-2.398,0.284-3.526   c-0.365-0.777-1.063-1.283-1.972-1.586c0.006-0.043,0.013-0.086,0.018-0.129C112.476,165.438,115.495,160.288,116.376,155.24z    M94.576,190.83c0.558-0.959,1.373-1.612,2.446-1.961c1.768-0.915,3.149-0.582,4.142,0.514c-1.077,0.428-2.143,0.772-3.113,1.041   C96.91,190.736,95.752,190.872,94.576,190.83z M112.531,159.308c-1.038,2.768-2.611,5.375-4.506,7.787   c-0.009-0.021-0.013-0.041-0.021-0.061c-0.202-0.488-0.494-0.916-0.824-1.316c1.473-1.398,2.913-2.815,4.31-4.241   c0.593-0.605-2.143-0.25-2.619,0.236c-0.949,0.97-1.92,1.925-2.9,2.873c-0.66-0.476-1.422-0.868-2.262-1.187   c0.145-0.146,0.29-0.295,0.434-0.442c1.714-1.107,3.351-2.267,4.88-3.391c1.424-1.047,2.853-2.115,4.232-3.242   C113.13,157.328,112.894,158.338,112.531,159.308z M84.786,182.669c1.05,0.014,2.08-0.07,3.028-0.248   c4.922-0.923,10.287-3.648,15.04-7.382c-0.879,1.006-1.81,1.882-2.532,2.516c-4.023,3.526-8.808,6.186-14.188,6.703   c-0.775,0.074-1.781,0.059-2.704-0.12C83.831,183.657,84.289,183.164,84.786,182.669z M74.264,178.563   c-1.096-1.482-1.479-3.113-1.408-4.756c0.766-0.392,1.522-0.802,2.27-1.23c-0.32,1.517-0.311,3.067,0.222,4.605   c0.352,1.016,0.898,1.862,1.573,2.571c-0.412,0.103-0.824,0.199-1.238,0.279C75.18,179.641,74.704,179.157,74.264,178.563z    M64.363,176.112c-1.712-2.586,1.998-4.97,3.82-6.041c1.09-0.64,2.248-1.209,3.431-1.746c-1.134,1.889-1.81,3.841-1.847,5.786   c-0.259,0.125-0.514,0.265-0.773,0.385C67.54,175.169,65.962,175.771,64.363,176.112z M68.891,151.302   c0.295-0.145,0.589-0.289,0.874-0.426c7.421-3.55,16.614-6.205,24.873-4.68c2.135,0.395,3.731,1.208,4.856,2.285   c-2.662,0.894-5.02,1.916-6.504,2.65c-4.037,1.998-8.543,4.524-11.783,7.942c-2.89,1.886-5.573,4.118-7.619,6.528   c-1.528-1.602-2.746-3.537-3.561-5.482C68.712,156.983,68.416,154.014,68.891,151.302z M113.348,154.516   c-1.639,1.571-3.623,3.128-5.727,4.594c1.951-2.358,3.712-4.854,5.168-7.491c0.015-0.027,0.026-0.056,0.041-0.083   C113.154,152.45,113.32,153.463,113.348,154.516z M109.078,153.638c-1.982,3.361-4.563,6.364-7.285,9.171   c-0.004,0.003-0.008,0.005-0.012,0.007c-0.668-0.158-1.357-0.286-2.063-0.385c2.455-2.213,4.363-4.884,5.025-8.013   c0.531-2.51-0.188-4.488-1.554-5.99c0.726-0.314,1.454-0.603,2.186-0.857c2.685-0.472,4.664,0.186,5.973,1.517   C110.769,150.814,109.534,152.864,109.078,153.638z M105.607,169.665c-0.975-0.003-2.015,0.08-3.072,0.232   c0.87-0.742,1.728-1.497,2.575-2.265C105.494,168.275,105.638,168.961,105.607,169.665z M102.827,172.601   c-1.389,0.015-2.821,0.192-4.261,0.511c0.784-0.598,1.556-1.214,2.321-1.838c1.158-0.126,2.311-0.159,3.442-0.083   C103.838,171.672,103.336,172.142,102.827,172.601z M99.412,170.486c-2.245,0.509-4.216,1.113-5.175,1.395   c-0.239,0.07-0.514,0.154-0.813,0.248c0.756-0.554,1.499-1.113,2.229-1.675c2.139-1.644,4.241-3.426,6.259-5.316   c0.694,0.336,1.351,0.716,1.943,1.154c0.062,0.045,0.113,0.093,0.171,0.139C102.527,167.823,100.987,169.177,99.412,170.486z    M86.11,157.531c0.773-0.465,1.586-0.894,2.413-1.299c-2.462,1.9-4.797,3.958-6.946,6.161c-0.147,0.15-0.298,0.311-0.448,0.468   c0.313-1.336,1.402-2.656,2.413-3.689C84.394,158.597,85.255,158.046,86.11,157.531z M97.795,161.883   c-0.109,0.111-0.234,0.213-0.347,0.322c-3.259-0.202-6.482,0.063-8.475,0.37c3.037-2.682,5.833-5.659,7.837-8.997   c0.162-0.271-0.357-0.321-0.484-0.318c-0.57,0.013-1.191,0.079-1.842,0.183c1.912-1.352,3.936-2.625,6.015-3.72   C102.676,153.147,101.419,158.197,97.795,161.883z M93.159,154.545c1.009-0.221-2.084,3.386-2.454,3.799   c-1.476,1.65-3.059,3.244-4.727,4.768c-1.177,0.233-2.353,0.494-3.527,0.784c1.989-2.23,4.218-4.182,5.89-5.623   c1.387-1.196,2.906-2.435,4.518-3.644C92.959,154.604,93.058,154.567,93.159,154.545z M79.945,167.129   c0.207,0.148,0.427,0.286,0.658,0.416c-0.504,0.376-1.024,0.729-1.539,1.09C79.331,168.126,79.622,167.624,79.945,167.129z    M81.472,165.048c0.014-0.017,0.027-0.034,0.042-0.052c1.031-0.251,2.059-0.477,3.084-0.685c-0.719,0.623-1.45,1.232-2.196,1.827   C82.027,165.824,81.713,165.462,81.472,165.048z M78.335,165.031c-0.689,0.21-1.375,0.428-2.058,0.654   c0.625-0.807,1.318-1.565,2.05-2.293C78.178,163.991,78.196,164.534,78.335,165.031z M75.302,167.054   c0.069-0.106,0.15-0.205,0.222-0.311c1.016-0.355,2.048-0.676,3.087-0.977c-0.604,0.776-1.179,1.591-1.687,2.438   c-0.579-0.315-1.132-0.682-1.66-1.089C75.276,167.095,75.289,167.073,75.302,167.054z M81.871,168.173   c0.009-0.007,0.019-0.014,0.027-0.02c1.063,0.409,2.213,0.672,3.255,0.807c-0.731,0.176-1.461,0.32-2.186,0.419   c-0.949,0.129-1.864,0.097-2.748-0.043C80.775,168.951,81.326,168.564,81.871,168.173z M83.603,166.903   c1.341-0.997,2.687-2.047,4.006-3.15c0.406-0.068,0.817-0.144,1.218-0.206c2.169-0.339,4.714-0.392,7.21-0.067   c-2.219,1.842-4.851,3.371-7.602,4.439C86.776,167.884,85.01,167.587,83.603,166.903z M98.025,163.825   c0.455,0.1,0.904,0.213,1.346,0.342c-3.181,1.723-5.88,2.941-7.15,3.325c-0.263,0.079-0.566,0.146-0.886,0.206   C93.592,166.696,95.93,165.405,98.025,163.825z M109.24,146.545c0.288-0.052,0.575-0.109,0.862-0.148   c0.633-0.086,1.03,0.04,1.27,0.299C110.7,146.588,109.986,146.541,109.24,146.545z M100.009,149.059   c-0.042,0.021-0.085,0.041-0.126,0.062c-2.973,1.466-5.854,3.186-8.604,5.097c-1.164,0.363-2.38,0.82-3.622,1.364   c3.648-2.752,7.972-5.031,12.329-6.55C99.993,149.04,100.001,149.049,100.009,149.059z M74.118,169.163   c0.616,0.309,1.249,0.563,1.898,0.758c-0.152,0.331-0.292,0.666-0.417,1.003c-0.852,0.524-1.714,1.023-2.583,1.505   C73.228,171.313,73.618,170.21,74.118,169.163z M77.917,175.301c-0.38-1.53-0.225-3.079,0.269-4.603   c0.145-0.094,0.29-0.187,0.435-0.281c3.012,0.278,6.192-0.348,9.183-1.347c3.587-0.099,7.131-1.202,10.495-2.806   c-2.56,2.428-5.439,4.927-8.535,7.141c-3.309,1.269-7.297,3.13-9.692,5.362c-0.121,0.046-0.241,0.1-0.362,0.144   C78.918,178.013,78.297,176.832,77.917,175.301z M81.514,180.355c0.421-0.705,0.978-1.357,1.634-1.959   c2.541-1.187,4.981-2.628,7.318-4.193c0.854-0.346,1.671-0.653,2.401-0.924c1.553-0.574,3.218-1.093,4.918-1.48   c-1.117,0.89-2.251,1.757-3.407,2.592c-3.092,1.196-6.006,2.863-8.289,4.637c-0.236,0.184-0.706,0.6-1.29,1.16   c-0.646,0.273-1.302,0.517-1.96,0.709C82.378,180.758,81.933,180.581,81.514,180.355z M88.039,179.77   c0.885-0.446,1.697-0.885,2.383-1.267c1.971-1.099,3.889-2.321,5.755-3.634c1.702-0.605,3.489-1.02,5.261-1.06   c-1.7,1.427-3.459,2.733-5.202,3.895c-2.645,1.764-6.456,3.367-9.953,3.556C86.858,180.748,87.452,180.247,88.039,179.77z    M87.263,136.41c9.723-1.126,20.975,1.406,28.6,7.72c2.283,1.891,2.104,4.277,0.521,6.8c-0.334-1.417-1.055-2.429-2.048-3.121   c0.203-0.76,0.366-1.53,0.431-2.32c-0.054-0.1-0.139-0.154-0.256-0.163c-3.475-0.547-7.121,0.482-10.482,1.881   c-0.563,0.125-1.125,0.264-1.685,0.414c-1.829-1.516-4.366-2.414-6.726-2.762c-8.44-1.242-18.031,1.039-26.379,4.972   C71.344,142.508,79.145,137.351,87.263,136.41z M56.779,174.813c-2.666-1.999-3.486-6.063-2.853-9.145   c1.193-5.796,6.884-10.008,12.183-12.924c-0.425,4.713,1.062,9.628,4.204,13.385c0.399,0.478,0.821,0.895,1.253,1.284   c-0.275,0.11-0.557,0.217-0.83,0.33c-2.945,1.222-10.847,4.18-9.488,8.648C59.68,176.311,58.157,175.847,56.779,174.813z    M64.977,176.858c1.652-0.425,3.264-0.982,4.838-1.642c0.189,1.719,0.927,3.419,2.311,5.055   C69.484,180.011,66.706,178.766,64.977,176.858z M76.768,180.702c0.309-0.077,0.615-0.16,0.922-0.248   c0.219,0.175,0.445,0.338,0.682,0.489c-0.045,0.094-0.087,0.188-0.125,0.281C77.738,181.117,77.246,180.938,76.768,180.702z    M80.975,182.455c0.229-0.051,0.457-0.1,0.686-0.159c0.309,0.072,0.621,0.134,0.936,0.186c-0.293,0.329-0.582,0.668-0.862,1.013   C81.351,183.23,81.079,182.889,80.975,182.455z M98.973,182.766c-3.182,1.998-12.626,7.801-16.428,5.517   c-0.889-0.534-0.828-1.471-0.209-2.592c4.076,0.054,9.736-1.784,11.199-2.414c3.142-1.352,9.15-4.588,12.502-8.556   c0.298,0.152,0.574,0.331,0.835,0.526C104.998,178.262,100.235,181.973,98.973,182.766z M107.606,173.485   c-0.165-0.073-0.326-0.151-0.498-0.217c0.15-0.235,0.29-0.473,0.418-0.712C107.636,172.836,107.657,173.148,107.606,173.485z"/><path d="M134.406,183.503c-0.307-0.592-0.617-1.184-0.93-1.766c-0.051-0.086-0.09-0.164-0.117-0.222   c-0.543-0.989-0.918-1.595-1.117-1.818c-0.199-0.226-0.414-0.314-0.645-0.276c-0.178,0.031-0.334,0.118-0.484,0.266   c-0.146,0.143-0.254,0.297-0.299,0.451c-0.387,1.53-0.709,2.621-0.939,3.279c-0.234,0.658-0.731,1.896-1.539,3.673   c-0.08-0.134-0.307-0.859-0.703-2.155c-0.121-0.391-0.271-0.855-0.465-1.4c-0.18-0.525-0.342-1.018-0.482-1.469   c-0.146-0.451-0.293-0.9-0.443-1.351c-0.09-0.341-0.307-0.904-0.662-1.688c-0.359-0.781-0.797-1.121-1.301-1.021   c-0.277,0.057-0.494,0.215-0.658,0.479c-0.164,0.26-0.221,0.511-0.18,0.746c0.039,0.191,0.164,0.486,0.381,0.889   c0.066,0.114,0.141,0.27,0.225,0.465c0.127,0.292,0.43,1.069,0.867,2.347c0.445,1.277,0.887,2.548,1.34,3.813   c0.449,1.267,0.771,2.087,0.979,2.448c0.207,0.367,0.41,0.6,0.613,0.713c0.201,0.107,0.434,0.156,0.699,0.129   c0.367-0.037,1.016-1.121,1.873-3.338c0.514-1.336,1.006-2.689,1.477-4.063c0.102,0.271,0.561,1.151,1.336,2.682   c0.777,1.527,1.311,2.495,1.648,2.859c0.334,0.373,0.682,0.537,1.045,0.498c0.137-0.012,0.301-0.08,0.49-0.206   c0.191-0.121,0.32-0.261,0.387-0.413c0.066-0.232,0.184-0.65,0.373-1.238c0.596-1.932,0.881-3.012,0.92-3.191   c0.049-0.218,0.098-0.436,0.148-0.652c0.357-1.568,0.561-3.027,0.629-4.365c0.064-1.336,0.031-2.306-0.09-2.903   c-0.057-0.29-0.176-0.536-0.361-0.74c-0.186-0.202-0.443-0.271-0.771-0.204c-0.24,0.049-0.439,0.159-0.592,0.33   c-0.156,0.168-0.215,0.372-0.166,0.604c0.363,3.424-0.033,6.898-1.186,10.269C135.635,185.927,135.223,185.093,134.406,183.503z"/><path d="M141.092,187.242c0.031,0.339,0.164,0.589,0.389,0.751c0.225,0.162,0.5,0.234,0.828,0.197   c0.197-0.018,0.361-0.132,0.475-0.336c0.111-0.203,0.262-0.651,0.439-1.33c0.303-0.913,0.822-2.141,1.52-3.719   c0.695-1.576,1.186-2.415,1.5-2.459c0.232-0.035,0.422,0.123,0.576,0.48c0.156,0.358,0.373,1.196,0.633,2.525   c0.213,1.088,0.531,1.925,0.977,2.508c0.443,0.586,0.896,0.857,1.379,0.808c0.238-0.025,0.449-0.15,0.611-0.361   c0.162-0.218,0.236-0.444,0.211-0.681c-0.027-0.235-0.139-0.475-0.328-0.709c-0.248-0.297-0.451-0.619-0.607-0.967   c-0.156-0.346-0.311-0.748-0.465-1.205c-0.15-0.457-0.312-1.059-0.48-1.807c-0.373-1.57-0.758-2.519-1.123-2.842   c-0.359-0.326-0.77-0.447-1.229-0.371c-0.654,0.111-1.244,0.582-1.775,1.395c-0.531,0.811-1.084,2.256-1.719,4.311   c0.012-0.725,0.055-1.699,0.113-2.938c0.086-2.051,0.096-3.551,0.066-4.484c-0.025-0.932-0.109-1.749-0.256-2.445   c-0.088-0.454-0.275-0.785-0.531-0.994c-0.258-0.208-0.529-0.279-0.814-0.225c-0.201,0.045-0.387,0.264-0.555,0.656   c-0.168,0.39-0.199,1.037-0.109,1.949c0.391,3.775,0.479,7.357,0.318,10.715C141.092,186.55,141.074,187.079,141.092,187.242z"/><path d="M153.441,183.31c1.354-0.576,2.414-1.457,3.16-2.66c0.75-1.199,1.018-2.418,0.828-3.607   c-0.107-0.675-0.391-1.225-0.838-1.645c-0.445-0.423-0.973-0.573-1.57-0.468c-1.199,0.216-2.176,1.24-2.971,3.037   c-0.797,1.797-1.072,3.588-0.844,5.433c0.158,1.246,0.525,2.199,1.123,2.85c0.598,0.646,1.348,0.939,2.262,0.848   c1.184-0.115,2.209-0.709,3.041-1.807c0.84-1.093,1.205-2.018,1.117-2.736c-0.059-0.464-0.25-0.678-0.574-0.633   c-0.195,0.025-0.373,0.186-0.543,0.49c-0.889,1.561-1.887,2.379-2.969,2.502c-0.385,0.045-0.707-0.07-0.969-0.336   c-0.266-0.262-0.416-0.553-0.451-0.875C153.221,183.507,153.287,183.374,153.441,183.31z M153.1,181.46   c0.049-0.985,0.295-1.947,0.727-2.895c0.434-0.945,0.877-1.467,1.342-1.543c0.16-0.022,0.299,0.033,0.42,0.168   c0.123,0.135,0.203,0.316,0.24,0.541c0.092,0.569-0.135,1.254-0.678,2.051C154.603,180.571,153.92,181.13,153.1,181.46z"/><path d="M161.918,175.407c-0.047-0.258-0.162-0.488-0.348-0.681c-0.189-0.195-0.426-0.266-0.715-0.214   c-0.275,0.051-0.504,0.203-0.686,0.467c-0.186,0.26-0.291,0.529-0.307,0.791c-0.023,0.268,0.006,0.742,0.064,1.434   c0.014,0.18,0.039,0.422,0.057,0.733c0.078,1.192,0.164,2.203,0.248,3.022c0.094,0.871,0.17,1.562,0.232,2.074   c0.15,1.244,0.32,2.138,0.535,2.672c0.215,0.535,0.5,0.791,0.877,0.751c0.35-0.031,0.619-0.179,0.799-0.439   c0.182-0.262,0.273-0.688,0.266-1.295c-0.031-2.09,0.301-4.023,1.004-5.828c0.703-1.804,1.23-2.76,1.633-2.822   c0.115-0.02,0.287,0.076,0.516,0.285c0.33,0.332,0.666,0.467,0.996,0.416c0.211-0.029,0.35-0.186,0.432-0.454   c0.078-0.269,0.092-0.583,0.031-0.935c-0.084-0.569-0.344-1.021-0.76-1.371c-0.416-0.35-0.896-0.476-1.441-0.379   c-0.713,0.125-1.342,0.798-1.908,2.005c-0.564,1.2-1.041,2.712-1.457,4.523c-0.027,0.119-0.061,0.24-0.09,0.359   c-0.006-0.555-0.016-1.109-0.027-1.662c-0.014-0.512-0.01-0.954,0.021-1.328C161.967,176.45,161.967,175.739,161.918,175.407z"/><path d="M175.197,179.711c-0.193,0.023-0.375,0.205-0.537,0.537c-0.869,1.716-1.859,2.616-2.941,2.741   c-0.379,0.045-0.707-0.09-0.973-0.386c-0.266-0.298-0.418-0.624-0.465-0.981c-0.027-0.219,0.035-0.361,0.191-0.434   c1.35-0.624,2.398-1.59,3.127-2.912c0.725-1.323,0.992-2.662,0.771-3.988c-0.123-0.75-0.412-1.36-0.871-1.84   c-0.459-0.475-0.988-0.656-1.582-0.549c-1.203,0.217-2.16,1.336-2.926,3.319c-0.764,1.983-1.016,3.978-0.756,6.036   c0.176,1.396,0.555,2.459,1.162,3.192c0.609,0.733,1.367,1.064,2.275,0.972c1.188-0.113,2.205-0.764,3.025-1.973   c0.826-1.205,1.182-2.227,1.082-3.024C175.715,179.905,175.516,179.669,175.197,179.711z M170.785,175.917   c0.42-1.043,0.852-1.613,1.318-1.69c0.154-0.024,0.297,0.042,0.422,0.192c0.125,0.152,0.209,0.357,0.25,0.605   c0.102,0.632-0.109,1.391-0.645,2.264c-0.529,0.869-1.215,1.482-2.027,1.835C170.139,178.028,170.367,176.96,170.785,175.917z"/><path d="M177.935,168.073c-0.066-0.352-0.154-0.627-0.264-0.836c-0.055-0.156-0.203-0.414-0.463-0.767   c-0.043-0.048-0.084-0.095-0.127-0.143c-0.697-0.728-1.16-1.058-1.369-1.009c-0.174,0.041-0.359,0.169-0.559,0.391   c-0.193,0.221-0.291,0.424-0.293,0.607c0.01,0.2,0.031,0.385,0.07,0.561c0.061,0.188,0.117,0.375,0.176,0.564   c0.027,0.13,0.199,0.329,0.518,0.604c0.455,0.383,0.709,0.725,0.764,1.027c0.168,0.869,0.09,1.628-0.236,2.258   c-0.08,0.145-0.141,0.361-0.184,0.623c-0.045,0.268-0.055,0.483-0.021,0.654c0.047,0.279,0.174,0.514,0.383,0.688   c0.207,0.171,0.432,0.25,0.674,0.205c0.428-0.072,0.715-0.482,0.855-1.245c0,0.002,0,0.007,0.002,0.011   c0.143-0.672,0.205-1.426,0.203-2.254c0,0.002,0,0.007,0.002,0.012c-0.008-0.903-0.049-1.549-0.129-1.941   C177.937,168.081,177.935,168.077,177.935,168.073z"/><path d="M186.121,178.194c-0.361-0.499-1.063-1.021-2.08-1.553c-0.688-0.355-1.16-0.66-1.406-0.925   c-0.25-0.255-0.397-0.553-0.441-0.858c-0.098-0.641,0.104-1.243,0.594-1.817c0.494-0.58,0.982-0.901,1.457-0.98   c0.078-0.014,0.203,0.022,0.371,0.112c0.166,0.092,0.287,0.128,0.342,0.119c0.146-0.027,0.299-0.179,0.463-0.467   c0.16-0.281,0.219-0.588,0.166-0.904c-0.201-1.197-0.77-1.711-1.668-1.548c-0.92,0.166-1.807,0.88-2.688,2.116   c-0.883,1.23-1.209,2.536-1,3.933c0.096,0.664,0.342,1.253,0.727,1.781c0.379,0.521,1.18,1.106,2.393,1.757   c0.986,0.514,1.512,0.99,1.586,1.428c-0.135,0.38-0.469,0.72-0.994,1.027c-0.529,0.303-1.043,0.487-1.551,0.54   c-0.184,0.022-0.393-0.016-0.619-0.113c-0.23-0.087-0.391-0.124-0.496-0.112c-0.252,0.033-0.467,0.189-0.641,0.481   c-0.174,0.292-0.24,0.626-0.201,1.007c0.113,1.037,0.645,1.506,1.623,1.412c1.326-0.129,2.486-0.633,3.471-1.537   c0.982-0.898,1.408-1.965,1.262-3.163C186.711,179.272,186.486,178.691,186.121,178.194z"/><path d="M200.361,177.642c-0.191,0.023-0.408,0.242-0.643,0.652c-0.377,0.65-0.697,1.072-0.959,1.279   c-0.256,0.199-0.541,0.322-0.84,0.354c-0.215,0.025-0.389-0.098-0.512-0.369c-0.129-0.269-0.234-0.761-0.32-1.475   c-0.051-0.403-0.061-1.59-0.082-3.557c-0.025-1.965-0.029-2.955,0.02-2.964c0.885-0.396,1.768-0.798,2.65-1.201   c0.774-0.342,1.1-0.9,0.965-1.691c-0.066-0.385-0.156-0.64-0.271-0.763c-0.117-0.119-0.313-0.156-0.596-0.107   c-0.166,0.03-1.076,0.314-2.732,0.853c0.012-2.619-0.033-3.999-0.059-4.138c-0.066-0.353-0.211-0.66-0.438-0.918   c-0.225-0.254-0.477-0.354-0.771-0.293c-0.525,0.104-0.756,0.696-0.705,1.77c0.078,1.727,0.082,3.133,0.033,4.206   c-0.566,0.132-1.133,0.263-1.699,0.397c-0.51,0.09-0.703,0.479-0.582,1.195c0.092,0.559,0.283,0.946,0.578,1.157   c0.291,0.218,0.566,0.306,0.813,0.267c0.055-0.009,0.113-0.018,0.168-0.027c0.135-0.023,0.363-0.09,0.699-0.201   c0.008,3.539,0.004,5.889,0.145,7.046c0.15,1.249,0.438,2.193,0.883,2.825c0.443,0.636,1.023,0.918,1.732,0.849   c0.852-0.083,1.611-0.648,2.279-1.714c0.66-1.061,0.939-1.989,0.85-2.768c-0.025-0.193-0.092-0.359-0.205-0.494   C200.65,177.683,200.517,177.624,200.361,177.642z"/><path d="M210.807,176.412c-0.18-0.5-0.355-1.079-0.533-1.731c-0.178-0.656-0.377-1.514-0.59-2.591   c-0.473-2.251-0.93-3.612-1.316-4.099c-0.393-0.486-0.818-0.693-1.27-0.612c-0.664,0.114-1.223,0.735-1.699,1.857   c-0.482,1.12-0.941,3.156-1.459,6.061c-0.031-1.035-0.049-2.441-0.072-4.207c-0.049-2.928-0.16-5.065-0.26-6.403   c-0.102-1.333-0.254-2.499-0.463-3.504c-0.131-0.65-0.348-1.138-0.631-1.458c-0.285-0.323-0.564-0.453-0.848-0.393   c-0.201,0.049-0.371,0.336-0.506,0.881c-0.139,0.541-0.117,1.465,0.059,2.775c0.719,5.434,1.047,10.583,1.064,15.431   c0.002,1.28,0.01,2.039,0.035,2.278c0.053,0.492,0.195,0.857,0.426,1.105c0.232,0.246,0.508,0.354,0.84,0.322   c0.197-0.023,0.352-0.176,0.461-0.467c0.107-0.292,0.234-0.922,0.381-1.895c0.264-1.296,0.711-3.038,1.332-5.256   c0.613-2.216,1.051-3.374,1.359-3.414c0.23-0.037,0.436,0.203,0.615,0.72c0.174,0.516,0.453,1.723,0.787,3.63   c0.275,1.562,0.635,2.763,1.107,3.62c0.469,0.851,0.943,1.259,1.422,1.209c0.242-0.029,0.445-0.188,0.6-0.484   c0.154-0.299,0.221-0.619,0.18-0.955c-0.037-0.332-0.16-0.674-0.363-1.021C211.201,177.382,210.984,176.913,210.807,176.412z"/><path d="M219.238,173.995c-0.189,0.025-0.361,0.244-0.52,0.655c-0.814,2.134-1.783,3.24-2.867,3.361   c-0.379,0.04-0.709-0.132-0.986-0.517c-0.277-0.383-0.443-0.805-0.496-1.256c-0.033-0.277,0.018-0.453,0.176-0.541   c1.33-0.742,2.355-1.922,3.041-3.561c0.689-1.637,0.895-3.303,0.621-4.977c-0.152-0.943-0.473-1.726-0.953-2.342   c-0.486-0.614-1.023-0.864-1.621-0.76c-1.203,0.217-2.115,1.579-2.801,4.047c-0.684,2.471-0.867,4.98-0.531,7.603   c0.223,1.775,0.637,3.132,1.268,4.081c0.627,0.945,1.393,1.38,2.305,1.29c1.185-0.121,2.191-0.908,2.982-2.407   c0.789-1.494,1.121-2.76,0.994-3.768C219.764,174.255,219.566,173.952,219.238,173.995z M214.666,169.061   c0.383-1.299,0.791-1.997,1.256-2.071c0.156-0.025,0.301,0.061,0.436,0.26c0.131,0.199,0.225,0.455,0.277,0.77   c0.131,0.805-0.06,1.744-0.56,2.822c-0.5,1.075-1.162,1.817-1.971,2.236C214.101,171.702,214.277,170.358,214.666,169.061z"/><path d="M234.076,162.343c-0.48-0.773-0.975-1.112-1.475-1.024c-0.615,0.107-1.221,0.753-1.822,1.931   c-0.602,1.176-1.104,2.645-1.516,4.415c-0.152-3.21-0.297-5.605-0.355-7.205c-0.154-3.232-0.381-5.357-0.586-6.351   c-0.318-1.46-0.695-2.145-1.131-2.043c-0.561,0.125-0.834,0.742-0.826,1.85c-0.01,1.109,0.391,4.589,0.852,10.438   c0.17,2.105,0.311,4.209,0.424,6.313c0.109,1.993,0.182,3.298,0.258,3.924c0.066,0.543,0.195,0.955,0.385,1.24   c0.084,0.13,0.16,0.254,0.232,0.37c0.072,0.116,0.146,0.355,0.205,0.73c0.119,0.682,0.391,1.225,0.813,1.621   c0.412,0.406,0.838,0.586,1.271,0.541c1.43-0.141,2.662-1.658,3.605-4.622c0.943-2.953,1.162-6.069,0.654-9.266   C234.881,164.075,234.549,163.119,234.076,162.343z M233.246,170.448c-0.234,1.68-0.609,2.998-1.123,3.957   c-0.514,0.962-1.022,1.465-1.527,1.525c-0.279,0.028-0.574-0.295-0.883-0.979c-0.188-1.572,0.09-3.594,0.813-6.115   c0.713-2.52,1.467-3.867,2.318-4.006c0.168-0.029,0.334,0.467,0.494,1.486C233.502,167.39,233.476,168.768,233.246,170.448z"/><path d="M244.51,170.765c-0.307-2.397-0.465-4.57-0.451-6.53c0.008-0.562-0.01-0.94-0.037-1.122   c-0.205-1.25-0.59-1.828-1.146-1.731c-0.34,0.06-0.557,0.388-0.65,0.985c-0.094,0.596-0.109,1.83-0.074,3.696   c0.047,1.907-0.223,3.816-0.791,5.695c-0.572,1.886-1.109,2.834-1.574,2.893c-0.295,0.037-0.523-0.653-0.699-2.055   c-0.051-0.423-0.082-1.399-0.109-2.927c-0.025-1.527-0.029-2.715-0.002-3.564c0.057-1.423,0.012-2.514-0.109-3.26   c-0.068-0.414-0.225-0.807-0.482-1.179c-0.252-0.375-0.539-0.532-0.848-0.478c-0.453,0.079-0.711,0.582-0.775,1.491   c0.18,1.075,0.301,2.671,0.33,4.789c0.049,2.556,0.129,4.464,0.281,5.706c0.217,1.764,0.566,3.045,1.086,3.854   c0.514,0.809,0.975,1.194,1.389,1.156c0.705-0.066,1.342-0.687,1.904-1.861c0.568-1.174,0.992-2.732,1.273-4.678   c0.256,2.017,0.547,3.616,0.908,4.793c0.354,1.184,0.744,1.752,1.166,1.708c0.248-0.024,0.496-0.222,0.734-0.599   c0.244-0.371,0.34-0.764,0.299-1.152c-0.031-0.27-0.127-0.488-0.309-0.658C245.285,175.229,244.869,173.57,244.51,170.765z"/><path d="M252.514,169.539c-0.398-0.7-1.111-1.442-2.172-2.218c-0.715-0.521-1.207-0.963-1.465-1.338   c-0.264-0.366-0.428-0.77-0.492-1.196c-0.133-0.88,0.031-1.691,0.498-2.444c0.465-0.75,0.936-1.173,1.41-1.251   c0.082-0.014,0.207,0.047,0.383,0.177c0.176,0.131,0.291,0.188,0.352,0.18c0.143-0.023,0.293-0.225,0.439-0.602   c0.148-0.376,0.188-0.787,0.113-1.219c-0.275-1.639-0.887-2.371-1.785-2.206c-0.92,0.167-1.77,1.078-2.582,2.709   c-0.814,1.625-1.066,3.393-0.777,5.32c0.141,0.915,0.416,1.738,0.83,2.479c0.412,0.74,1.252,1.574,2.496,2.527   c1.008,0.748,1.566,1.426,1.658,2.021c-0.115,0.512-0.436,0.967-0.953,1.359c-0.516,0.397-1.031,0.621-1.537,0.678   c-0.184,0.018-0.393-0.041-0.625-0.182c-0.234-0.128-0.398-0.186-0.504-0.176c-0.25,0.031-0.459,0.243-0.625,0.636   c-0.16,0.392-0.219,0.856-0.16,1.377c0.152,1.431,0.707,2.1,1.684,2.005c1.326-0.129,2.48-0.785,3.428-1.98   c0.953-1.191,1.332-2.631,1.137-4.261C253.156,171.036,252.904,170.239,252.514,169.539z"/><path d="M257.031,172.899c-0.305-0.359-0.551-0.527-0.723-0.504c-0.248,0.031-0.424,0.168-0.539,0.424   c-0.037,0.098-0.09,0.207-0.16,0.329c-0.355,0.671-0.516,1.265-0.455,1.783c0.066,0.63,0.236,1.142,0.51,1.54   c0.277,0.393,0.584,0.578,0.922,0.544c0.326-0.029,0.645-0.316,0.973-0.864c0.326-0.545,0.447-1.175,0.371-1.883   C257.832,173.366,257.529,172.911,257.031,172.899z"/><path d="M260.047,155.739c-0.285-1.555-0.6-2.67-0.898-3.365c-0.295-0.692-0.826-1.395-1.572-2.11   c-0.459-0.45-0.982-0.585-1.563-0.409c-0.303,0.088-0.605,0.167-0.914,0.243c-0.438,0.108-0.791,0.472-1.092,1.067   c0.004,0,0.004,0,0.01,0c-0.363,0.635-0.629,1.367-0.787,2.197c-0.166,0.827-0.189,1.535-0.076,2.128   c0.186,0.985,0.51,1.439,1.006,1.349c0.748-0.137,1.076-0.716,0.955-1.732c-0.025-0.297,0.029-0.619,0.18-0.962   c0.148-0.345,0.506-0.571,1.084-0.683c0.197-0.039,0.408-0.011,0.629,0.092c0.225,0.098,0.387,0.22,0.486,0.375   c0.102,0.152,0.256,0.551,0.459,1.198c0.205,0.644,0.344,1.164,0.41,1.552c0.1,0.551,0.131,1.117,0.1,1.699   c-0.033,0.582-0.131,0.975-0.289,1.178c-0.311,0.363-0.621,0.723-0.934,1.083c-0.594,0.684-0.988,1.175-1.191,1.485   c-0.201,0.314-0.408,0.751-0.621,1.316c-0.111,1.447-0.186,2.404-0.195,2.873c-0.018,0.467,0.016,0.965,0.086,1.498   c0.07,0.496,0.176,0.972,0.32,1.416c0.145,0.449,0.295,0.662,0.443,0.642c0.463-0.056,0.773-0.242,0.932-0.55   c0.154-0.313,0.223-0.76,0.197-1.363c-0.045-1.129-0.057-2.107-0.021-2.921c1.195-1.188,1.977-2.04,2.34-2.534   c0.363-0.501,0.621-1.315,0.764-2.458c0.143-1.144,0.072-2.574-0.244-4.288C260.049,155.749,260.047,155.744,260.047,155.739z"/></g></svg>