<svg width="345" height="336" viewBox="0 0 345 336" fill="none" xmlns="http://www.w3.org/2000/svg">
<line x1="85.7565" y1="7.74204" x2="85.7565" y2="336" stroke="white" stroke-opacity="0.05" stroke-width="6"/>
<line x1="95.0571" y1="0.509979" x2="95.0571" y2="328.768" stroke="white" stroke-opacity="0.25" stroke-width="6"/>
<line x1="167.944" y1="0.509979" x2="167.944" y2="328.768" stroke="white" stroke-opacity="0.6" stroke-width="6"/>
<line x1="249.943" y1="0.509979" x2="249.942" y2="328.768" stroke="white" stroke-opacity="0.75" stroke-width="6"/>
<line x1="3.94824" y1="0.509979" x2="3.94823" y2="328.768" stroke="white" stroke-opacity="0.075" stroke-width="6"/>
<line x1="113.279" y1="0.509979" x2="113.279" y2="328.768" stroke="white" stroke-opacity="0.4" stroke-width="6"/>
<line x1="186.166" y1="0.509979" x2="186.166" y2="328.768" stroke="white" stroke-opacity="0.6" stroke-width="6"/>
<line x1="22.17" y1="0.509979" x2="22.17" y2="328.768" stroke="white" stroke-opacity="0.1" stroke-width="6"/>
<line x1="204.388" y1="0.509979" x2="204.388" y2="328.768" stroke="white" stroke-opacity="0.6" stroke-width="6"/>
<line x1="286.386" y1="0.509979" x2="286.386" y2="328.768" stroke="white" stroke-opacity="0.5" stroke-width="6"/>
<line x1="32.325" y1="0.509979" x2="32.3249" y2="328.768" stroke="white" stroke-opacity="0.125" stroke-width="6"/>
<line x1="304.608" y1="0.509979" x2="304.608" y2="328.768" stroke="white" stroke-opacity="0.5" stroke-width="6"/>
<line x1="58.6138" y1="0.509979" x2="58.6138" y2="328.768" stroke="white" stroke-opacity="0.25" stroke-width="6"/>
<line x1="131.5" y1="0.509979" x2="131.5" y2="328.768" stroke="white" stroke-opacity="0.4" stroke-width="6"/>
<line x1="213.499" y1="0.509979" x2="213.499" y2="328.768" stroke="white" stroke-opacity="0.4" stroke-width="6"/>
<line x1="322.83" y1="0.509979" x2="322.83" y2="328.768" stroke="white" stroke-opacity="0.5" stroke-width="6"/>
<line x1="76.8353" y1="0.509979" x2="76.8353" y2="328.768" stroke="white" stroke-opacity="0.25" stroke-width="6"/>
<line x1="149.722" y1="0.509979" x2="149.722" y2="328.768" stroke="white" stroke-opacity="0.6" stroke-width="6"/>
<line x1="231.721" y1="0.509979" x2="231.721" y2="328.768" stroke="white" stroke-opacity="0.6" stroke-width="6"/>
<line x1="259.053" y1="0.509979" x2="259.053" y2="328.768" stroke="white" stroke-opacity="0.4" stroke-width="6"/>
<line x1="341.052" y1="0.509979" x2="341.052" y2="328.768" stroke="white" stroke-opacity="0.5" stroke-width="6"/>
</svg>
