<svg width="342" height="336" viewBox="0 0 342 336" fill="none" xmlns="http://www.w3.org/2000/svg">
<line x1="83.9084" y1="7.74204" x2="83.9084" y2="336" stroke="white" stroke-opacity="0.05" stroke-width="4"/>
<line x1="93.2091" y1="0.509979" x2="93.2091" y2="328.768" stroke="white" stroke-opacity="0.25" stroke-width="4"/>
<line x1="166.096" y1="0.509979" x2="166.096" y2="328.768" stroke="white" stroke-opacity="0.6" stroke-width="4"/>
<line x1="248.094" y1="0.509979" x2="248.094" y2="328.768" stroke="white" stroke-opacity="0.75" stroke-width="4"/>
<line x1="2.10022" y1="0.509979" x2="2.10021" y2="328.768" stroke="white" stroke-opacity="0.075" stroke-width="4"/>
<line x1="111.431" y1="0.509979" x2="111.431" y2="328.768" stroke="white" stroke-opacity="0.4" stroke-width="4"/>
<line x1="184.318" y1="0.509979" x2="184.318" y2="328.768" stroke="white" stroke-opacity="0.6" stroke-width="4"/>
<line x1="20.322" y1="0.509979" x2="20.322" y2="328.768" stroke="white" stroke-opacity="0.1" stroke-width="4"/>
<line x1="202.54" y1="0.509979" x2="202.54" y2="328.768" stroke="white" stroke-opacity="0.6" stroke-width="4"/>
<line x1="284.538" y1="0.509979" x2="284.538" y2="328.768" stroke="white" stroke-opacity="0.5" stroke-width="4"/>
<line x1="30.4769" y1="0.509979" x2="30.4769" y2="328.768" stroke="white" stroke-opacity="0.125" stroke-width="4"/>
<line x1="302.76" y1="0.509979" x2="302.76" y2="328.768" stroke="white" stroke-opacity="0.5" stroke-width="4"/>
<line x1="56.7657" y1="0.509979" x2="56.7657" y2="328.768" stroke="white" stroke-opacity="0.25" stroke-width="4"/>
<line x1="129.652" y1="0.509979" x2="129.652" y2="328.768" stroke="white" stroke-opacity="0.4" stroke-width="4"/>
<line x1="211.651" y1="0.509979" x2="211.651" y2="328.768" stroke="white" stroke-opacity="0.4" stroke-width="4"/>
<line x1="320.982" y1="0.509979" x2="320.982" y2="328.768" stroke="white" stroke-opacity="0.5" stroke-width="4"/>
<line x1="74.9873" y1="0.509979" x2="74.9873" y2="328.768" stroke="white" stroke-opacity="0.25" stroke-width="4"/>
<line x1="147.874" y1="0.509979" x2="147.874" y2="328.768" stroke="white" stroke-opacity="0.6" stroke-width="4"/>
<line x1="229.873" y1="0.509979" x2="229.873" y2="328.768" stroke="white" stroke-opacity="0.6" stroke-width="4"/>
<line x1="257.205" y1="0.509979" x2="257.205" y2="328.768" stroke="white" stroke-opacity="0.4" stroke-width="4"/>
<line x1="339.204" y1="0.509979" x2="339.204" y2="328.768" stroke="white" stroke-opacity="0.5" stroke-width="4"/>
</svg>
