<svg width="382" height="382" viewBox="0 0 382 382" fill="none" xmlns="http://www.w3.org/2000/svg">
<rect width="382" height="382" rx="21" fill="url(#paint0_linear_49_3)"/>
<path d="M195.26 134C209.767 134 220.873 138.987 228.58 148.96C236.287 158.707 240.14 172.647 240.14 190.78V304H211.24V194.86C211.24 172.193 203.987 160.86 189.48 160.86C183.133 160.86 176.56 163.353 169.76 168.34C163.187 173.327 157.407 180.127 152.42 188.74V304H123.52V194.86C123.52 172.193 116.267 160.86 101.76 160.86C95.4133 160.86 88.84 163.353 82.04 168.34C75.4667 173.327 69.6867 180.127 64.7 188.74V304H35.8V138.08H63V162.9C68.8933 153.607 75.6933 146.467 83.4 141.48C91.1067 136.493 99.1533 134 107.54 134C117.967 134 126.693 136.72 133.72 142.16C140.747 147.373 145.847 155.08 149.02 165.28C155.14 155.08 162.167 147.373 170.1 142.16C178.033 136.72 186.42 134 195.26 134ZM349.012 67.7C356.492 67.7 363.632 68.4933 370.432 70.08V93.2C363.632 92.0667 356.605 91.5 349.352 91.5C342.325 91.5 336.772 93.7667 332.692 98.3C328.838 102.833 326.912 109.747 326.912 119.04V138.08H360.912V161.88H326.912V304H298.012V161.88H274.212V138.08H298.012V120.74C298.238 103.06 302.658 89.8 311.272 80.96C319.885 72.12 332.465 67.7 349.012 67.7Z" fill="white"/>
<defs>
<linearGradient id="paint0_linear_49_3" x1="324" y1="116" x2="41" y2="21" gradientUnits="userSpaceOnUse">
<stop stop-color="#18C4A5"/>
<stop offset="1" stop-color="#5AFF88"/>
</linearGradient>
</defs>
</svg>
