<svg width="382" height="382" viewBox="0 0 382 382" fill="none" xmlns="http://www.w3.org/2000/svg">
<rect width="382" height="382" rx="21" fill="url(#paint0_linear_45_80)"/>
<path d="M36.5898 352H54.3535V243.094C58.8913 234.461 64.5358 227.378 71.2871 221.844C78.0384 216.199 86.0072 213.377 95.1934 213.377C105.818 213.377 114.008 216.089 119.764 221.512C125.63 226.935 128.562 236.785 128.562 251.062V352H146.492V243.094C150.919 234.35 156.508 227.212 163.26 221.678C170.011 216.144 178.035 213.377 187.332 213.377C197.957 213.377 206.147 216.089 211.902 221.512C217.658 226.824 220.535 236.674 220.535 251.062V352H238.465V251.395C238.465 231.805 234.259 217.859 225.848 209.559C217.547 201.147 206.59 196.941 192.977 196.941C182.02 196.941 172.169 199.321 163.426 204.08C154.793 208.729 147.876 215.48 142.674 224.334H142.508C139.741 215.258 134.705 208.452 127.4 203.914C120.206 199.266 111.352 196.941 100.838 196.941C90.6556 196.941 81.6354 199.266 73.7773 203.914C66.0299 208.452 59.334 214.816 53.6895 223.006H53.5234V200.262H36.5898V352ZM301.004 352H318.768V207.234V205.408V165.73C318.768 150.346 321.424 139.389 326.736 132.859C332.049 126.219 339.575 122.898 349.314 122.898C352.192 122.898 355.07 123.175 357.947 123.729C360.825 124.282 363.26 124.78 365.252 125.223L367.078 109.285C364.311 108.51 361.323 107.902 358.113 107.459C355.014 106.906 351.915 106.629 348.816 106.629C333.986 106.629 322.309 111.665 313.787 121.736C305.265 131.697 301.004 146.362 301.004 165.73V352ZM273.279 216.531H352.635V200.262H311.297H308.309H273.279V216.531Z" fill="#F5F5F5"/>
<defs>
<linearGradient id="paint0_linear_45_80" x1="296" y1="246" x2="5.99999" y2="149" gradientUnits="userSpaceOnUse">
<stop stop-color="#00D0AA"/>
<stop offset="1" stop-color="#5FE684"/>
</linearGradient>
</defs>
</svg>
