<svg width="214" height="96" viewBox="0 0 214 96" fill="none" xmlns="http://www.w3.org/2000/svg">
<path d="M4 91C4 91 33.1373 -9.92716 61.6406 5.62999C73.3033 11.9955 73.6699 32.6779 86.2005 38.5946C98.731 44.5114 100.736 5.62999 114.269 5.62999C127.802 5.62999 125.797 38.5946 141.335 38.5946C156.873 38.5946 153.866 5.62999 169.905 5.62999C185.944 5.62999 209 91 209 91" stroke="black" stroke-width="4"/>
<circle cx="114.004" cy="5.00445" r="3.5" transform="rotate(-90.0639 114.004 5.00445)" fill="white" stroke="black"/>
<circle cx="55.0045" cy="4.00445" r="3.5" transform="rotate(-90.0639 55.0045 4.00445)" fill="white" stroke="black"/>
<circle cx="4.00446" cy="91.0045" r="3.5" transform="rotate(-90.0639 4.00446 91.0045)" fill="white" stroke="black"/>
<circle cx="209.004" cy="91.0045" r="3.5" transform="rotate(-90.0639 209.004 91.0045)" fill="white" stroke="black"/>
<circle cx="169.004" cy="5.00445" r="3.5" transform="rotate(-90.0639 169.004 5.00445)" fill="white" stroke="black"/>
</svg>
