<?xml version="1.0" encoding="UTF-8"?>
<svg xmlns="http://www.w3.org/2000/svg" viewBox="0 0 895.09 363.5">
  <defs>
    <style>
      .cls-1 {
        letter-spacing: -.01em;
      }

      .cls-2 {
        font-size: 12.72px;
      }

      .cls-2, .cls-3, .cls-4 {
        fill: #6d6e71;
      }

      .cls-2, .cls-4 {
        font-family: AvenirNext-Medium, 'Avenir Next';
        font-weight: 500;
      }

      .cls-5 {
        letter-spacing: 0em;
      }

      .cls-6 {
        stroke-dasharray: 0 0 5.05 4.04;
      }

      .cls-6, .cls-7, .cls-8, .cls-9, .cls-10, .cls-11 {
        fill: none;
        stroke-miterlimit: 10;
      }

      .cls-6, .cls-9 {
        stroke: #92278f;
        stroke-width: 3.5px;
      }

      .cls-12 {
        fill: #58595b;
        font-size: 24px;
      }

      .cls-12, .cls-3 {
        font-family: AvenirNext-DemiBold, 'Avenir Next';
        font-weight: 300;
      }

      .cls-3, .cls-4 {
        font-size: 12.06px;
      }

      .cls-13 {
        letter-spacing: 0em;
      }

      .cls-14 {
        letter-spacing: 0em;
      }

      .cls-15 {
        letter-spacing: 0em;
      }

      .cls-7, .cls-11 {
        stroke: #231f20;
      }

      .cls-8 {
        stroke: #939598;
      }

      .cls-16 {
        letter-spacing: 0em;
      }

      .cls-10 {
        stroke: #e6e7e8;
        stroke-width: .5px;
      }

      .cls-11 {
        stroke-dasharray: 0 0 2.01 2.01;
      }
    </style>
  </defs>
  <g id="Layer_1" data-name="Layer 1">
    <line class="cls-8" x1="48.79" y1="54.14" x2="48.79" y2="343.42"/>
    <line class="cls-8" x1="883.43" y1="343.42" x2="48.79" y2="343.42"/>
    <g>
      <line class="cls-10" x1="883.43" y1="314.49" x2="48.79" y2="314.49"/>
      <line class="cls-10" x1="883.43" y1="285.56" x2="48.79" y2="285.56"/>
      <line class="cls-10" x1="883.43" y1="256.64" x2="48.79" y2="256.64"/>
      <line class="cls-10" x1="883.43" y1="227.71" x2="48.79" y2="227.71"/>
      <line class="cls-10" x1="883.43" y1="198.78" x2="48.79" y2="198.78"/>
      <line class="cls-10" x1="883.43" y1="169.85" x2="48.79" y2="169.85"/>
      <line class="cls-10" x1="883.43" y1="140.92" x2="48.79" y2="140.92"/>
      <line class="cls-10" x1="883.43" y1="111.99" x2="48.79" y2="111.99"/>
      <line class="cls-10" x1="883.43" y1="83.06" x2="48.79" y2="83.06"/>
      <line class="cls-10" x1="883.43" y1="54.14" x2="48.79" y2="54.14"/>
    </g>
    <g>
      <line class="cls-10" x1="153.12" y1="343.51" x2="153.12" y2="54.14"/>
      <line class="cls-10" x1="257.45" y1="343.51" x2="257.45" y2="54.14"/>
      <line class="cls-10" x1="361.78" y1="343.51" x2="361.78" y2="54.14"/>
      <line class="cls-10" x1="466.11" y1="343.51" x2="466.11" y2="54.14"/>
      <line class="cls-10" x1="570.44" y1="343.51" x2="570.44" y2="54.14"/>
      <line class="cls-10" x1="674.77" y1="343.51" x2="674.77" y2="54.14"/>
      <line class="cls-10" x1="779.1" y1="343.51" x2="779.1" y2="54.14"/>
      <line class="cls-10" x1="883.43" y1="343.51" x2="883.43" y2="54.14"/>
    </g>
    <g>
      <text class="cls-4" transform="translate(26.24 317.71) scale(1.16 1)"><tspan x="0" y="0">10</tspan></text>
      <text class="cls-4" transform="translate(33.58 346.55) scale(1.16 1)"><tspan x="0" y="0">0</tspan></text>
      <text class="cls-4" transform="translate(26.24 288.86) scale(1.16 1)"><tspan x="0" y="0">20</tspan></text>
      <text class="cls-4" transform="translate(26.24 260.02) scale(1.16 1)"><tspan x="0" y="0">30</tspan></text>
      <text class="cls-4" transform="translate(26.24 231.17) scale(1.16 1)"><tspan x="0" y="0">40</tspan></text>
      <text class="cls-4" transform="translate(26.24 202.33) scale(1.16 1)"><tspan x="0" y="0">50</tspan></text>
      <text class="cls-4" transform="translate(26.24 173.48) scale(1.16 1)"><tspan x="0" y="0">60</tspan></text>
      <text class="cls-4" transform="translate(26.24 144.64) scale(1.16 1)"><tspan x="0" y="0">70</tspan></text>
      <text class="cls-4" transform="translate(26.24 115.79) scale(1.16 1)"><tspan x="0" y="0">80</tspan></text>
      <text class="cls-4" transform="translate(26.24 86.95) scale(1.16 1)"><tspan x="0" y="0">90</tspan></text>
      <text class="cls-4" transform="translate(21.35 58.1) scale(1.16 1)"><tspan x="0" y="0">100</tspan></text>
    </g>
    <g>
      <text class="cls-2" transform="translate(121.73 357.73) scale(1.1 1)"><tspan x="0" y="0">Apr ‘20</tspan></text>
      <text class="cls-2" transform="translate(229.84 357.96) scale(1.1 1)"><tspan x="0" y="0">Jul ‘20</tspan></text>
      <text class="cls-2" transform="translate(327.31 357.73) scale(1.1 1)"><tspan x="0" y="0">Oct ‘20</tspan></text>
      <text class="cls-2" transform="translate(437 357.73) scale(1.1 1)"><tspan class="cls-14" x="0" y="0">J</tspan><tspan x="6.22" y="0">an ‘21</tspan></text>
      <text class="cls-2" transform="translate(539.18 357.73) scale(1.1 1)"><tspan x="0" y="0">Apr ‘21</tspan></text>
      <text class="cls-2" transform="translate(646.44 357.73) scale(1.1 1)"><tspan x="0" y="0">Jul ‘21</tspan></text>
      <text class="cls-2" transform="translate(749.16 357.73) scale(1.1 1)"><tspan x="0" y="0">Oct ‘21</tspan></text>
      <text class="cls-2" transform="translate(848.91 357.73) scale(1.1 1)"><tspan class="cls-14" x="0" y="0">J</tspan><tspan x="6.22" y="0">an ‘22</tspan></text>
    </g>
  </g>
  <g id="Layer_2" data-name="Layer 2">
    <path class="cls-9" d="m48.67,344.19s30.38-2.31,40.89-5.16c9.86-2.67,21.64-48.39,34.15-51,1.78-.37,3.45-1.06,4.63-2.24,1.32-1.31,1.82-1.56,4.44,0,.75.45,6.2,1.92,6.88,2.44,1.42,1.09,3.76,1.75,7-1.11,5.7-5.02,12.25,3.9,21.37,2.93,10.22-1.08,21.52-14.5,27.3-21.27.99-1.15,2.85-1.5,4.35-.84,2.41,1.06,4.25,4.64,6.71,4.93,4.09.49,8.32-7.09,10.66-8.52,2.34-1.43,4.19-.61,7.45-.61s7.16-9.37,9.2-9.37c1.33,0,4.63.82,6.78,1.4,1.25.33,2.62.11,3.62-.6l5.7-4.01c.97-.58,2.21-.77,3.36-.5l29.7,6.95c1.44.34,2.99.21,4.33-.36l7.26-1.84c1.13-.29,2.35-.21,3.42.22l23.91,9.93c1.47.61,3.19.63,4.68.05l12.43-3.15c.22-.05.43-.12.63-.21,1.33-.55,2.56-1.26,3.64-2.12.15-.12.28-.24.41-.37l25.55-26.96c.75-.79,1.68-1.46,2.73-1.96l5.27-2.51c.26-.12.49-.28.72-.44.65-.47,1.43-.79,2.27-.93l4.3-.72c2.38-.4,4.54-1.43,6.15-2.95l3.29-3.1c1.72-1.62,4.61-1.93,6.76-.73l5.81,3.34c2.18,1.21,5.11.86,6.78-.82l23.39-27.87c1.2-1.38,3.72-1.27,4.73.22l33.17,56.49c1.16,1.74,11.18,6.35,13.33,5.48l10.53-4.59c2.32-.79,4.21-2.25,5.32-4.12l14.96-23.58c.2-.31.33-.65.4-1l24.92-134.45c.07-.37.22-.73.44-1.06l2.65-3.98c1.34-2.01,4.73-2.21,6.39-.37h0c.37.41.84.73,1.39.95l7.95,3.2c1.09.44,1.86,1.27,2.09,2.26l28,120.78c.1.44.32.86.63,1.23l9.77,11.51c.25.29.55.54.89.75l6.66,3.97c.65.39,1.42.59,2.22.59h6.81c1.19,0,2.32-.47,3.04-1.26l10.82-11.9c.2-.22.37-.46.49-.72l11.11-22.73c.84-1.71,3.24-2.47,5.23-1.65l10.41,4.31c.34.14.65.32.92.54l14.8,11.66c.37.29.66.63.86,1.02l14.29,26.72"/>
  </g>
  <g id="Layer_3" data-name="Layer 3">
    <text class="cls-12" transform="translate(8.36 20.5)"><tspan x="0" y="0">Daily d</tspan><tspan class="cls-13" x="77.93" y="0">e</tspan><tspan class="cls-16" x="91.56" y="0">a</tspan><tspan x="104.52" y="0">ths</tspan></text>
    <g>
      <line class="cls-7" x1="691.82" y1="58.1" x2="691.82" y2="59.1"/>
      <line class="cls-11" x1="691.82" y1="61.11" x2="691.82" y2="341.42"/>
      <line class="cls-7" x1="691.82" y1="342.42" x2="691.82" y2="343.42"/>
    </g>
    <text class="cls-3" transform="translate(5.54 106.36) rotate(90) scale(1.16 1)"><tspan x="0" y="0">D</tspan><tspan class="cls-5" x="9.22" y="0">e</tspan><tspan class="cls-1" x="16.07" y="0">a</tspan><tspan class="cls-15" x="22.58" y="0">ths per 100k persons</tspan></text>
    <g>
      <path class="cls-9" d="m691.82,234.82c.52.66,1.03,1.32,1.55,1.96"/>
      <path class="cls-6" d="m695.95,239.89c12.56,14.82,25.05,24.05,31.7,26.4,15.58,5.52,35.05,5.52,35.05,5.52,0,0,7.85,2.85,29.21-6.17,21.35-9.01,49.07-162.58,49.07-162.58,0,0,5.84-13.7,10.9-15.77,4.31-1.77,24.16,49.52,29.95,64.77"/>
      <path class="cls-9" d="m882.55,153.95c.57,1.5.88,2.34.88,2.34"/>
    </g>
  </g>
</svg>